<?xml version="1.0" encoding="utf-8"?>
<!-- Generator: Adobe Illustrator 16.0.4, SVG Export Plug-In . SVG Version: 6.00 Build 0)  -->
<!DOCTYPE svg PUBLIC "-//W3C//DTD SVG 1.1//EN" "http://www.w3.org/Graphics/SVG/1.1/DTD/svg11.dtd">
<svg version="1.1" id="Layer_1" xmlns="http://www.w3.org/2000/svg" xmlns:xlink="http://www.w3.org/1999/xlink" x="0px" y="0px"
	 width="2048px" height="480px" viewBox="0 0 2048 480" enable-background="new 0 0 2048 480" xml:space="preserve">
<g>
	<polygon fill="#640800" points="2048,120 0,120 0,0 2004,0 2048,44 	"/>
	<polygon fill="#97536E" points="2004,0 2004,44 2048,44 	"/>
</g>
<g>
	<polygon fill="#E7DDC0" points="2048,240 0,240 0,120 2004,120 2048,164 	"/>
	<polygon fill="#CCBA72" points="2004,120 2004,164 2048,164 	"/>
</g>
<g>
	<polygon fill="#AD8E0C" points="2048,360 0,360 0,240 2004,240 2048,284 	"/>
	<polygon fill="#C2AB5B" points="2004,240 2004,284 2048,284 	"/>
</g>
<g>
	<polygon fill="#848387" points="2048,480 0,480 0,360 2004,360 2048,404 	"/>
	<polygon fill="#A5A4A7" points="2004,360 2004,404 2048,404 	"/>
</g>
</svg>
